<?xml version="1.0" encoding="utf-8"?>
<!-- Generator: Adobe Illustrator 21.0.2, SVG Export Plug-In . SVG Version: 6.00 Build 0)  -->
<svg version="1.1" id="Layer_1" xmlns="http://www.w3.org/2000/svg" xmlns:xlink="http://www.w3.org/1999/xlink" x="0px" y="0px"
	 viewBox="0 0 48.1 85.1" style="enable-background:new 0 0 48.1 85.1;" xml:space="preserve">
<style type="text/css">
	.st0{fill:#5B4319;}
	.st1{fill:#FED210;}
	.st2{fill:#FBAE18;}
</style>
<g>
	<polygon class="st0" points="26,6.4 19.6,6.4 19.6,2.3 26,0 	"/>
	<g>
		<line class="st1" x1="38.8" y1="20.7" x2="38.8" y2="44"/>
		<path class="st1" d="M22.8,85.1c18.2,0,25.3-9.3,25.3-18.5c0-10.2-9.3-16.1-9.3-22.6V20.7c0-8.2-7.8-15-16-15V85.1z"/>
	</g>
	<path class="st1" d="M22.8,83C9.5,82.7,2.3,76.7,2.3,66.6c0-5.2,1.9-9.1,3.7-12.9c1.6-3.2,3.1-6.3,3.1-9.7V20.7
		c0-6,6.8-12.9,13.7-12.9V5.7l0,0c-8.2,0-16,6.7-16,15V44C6.8,50.5,0,56.4,0,66.6c0,9.2,4.6,18.5,22.8,18.5"/>
	<path class="st2" d="M29.8,76.4c5.5,0,10-4.5,10-10c0-5.5-4.5-10-10-10V76.4z"/>
</g>
</svg>
