<?xml version="1.0" encoding="utf-8"?>
<!-- Generator: Adobe Illustrator 21.0.2, SVG Export Plug-In . SVG Version: 6.00 Build 0)  -->
<svg version="1.1" id="Layer_1" xmlns="http://www.w3.org/2000/svg" xmlns:xlink="http://www.w3.org/1999/xlink" x="0px" y="0px"
	 viewBox="0 0 239.1 349" style="enable-background:new 0 0 239.1 349;" xml:space="preserve">
<style type="text/css">
	.st0{fill:#FFC81B;}
	.st1{opacity:5.000000e-02;}
	.st2{fill:none;stroke:#000000;stroke-miterlimit:10;}
	.st3{fill:#FFFFFF;stroke:#000000;stroke-width:3;stroke-miterlimit:10;}
	.st4{stroke:#000000;stroke-miterlimit:10;}
	.st5{fill:#FFFFFF;}
	.st6{fill:#998067;}
	.st7{opacity:0.2;}
</style>
<g>
	<path class="st0" d="M49.7,20.5c-35,2-47,26.6-47,49c0,67,5.6,93.1,9,118c8,58-10,59-10,107c0,46,75.6,49.2,85,51
		c19.4,3.7,53,4,88-13c13.1-6.3,38-9,53-39c12.6-25.2,19-47-15-77c-33.6-29.6-51,7.5-84-29c-28-31-12.7-87.9-27.6-126.4
		C89.7,31.5,82.8,18.6,49.7,20.5z"/>
	<g>
		<path d="M49.7,19C33.5,20.1,17.9,26.3,9,40.5C-0.4,55.4,1.1,73.1,1.4,90c0.6,30.8,3.5,61.1,8,91.6c2.5,17.3,4.3,34.9,1.3,52.2
			c-2.3,13-7,25.4-8.9,38.4c-2,13.9-3.8,29.7,4,42.2c6.4,10.3,17.3,16.8,28.3,21.3c19.1,7.8,40.4,10.2,60.7,12.5
			c20.1,2.3,40.9-0.1,60.1-6.2c9.3-2.9,17.8-7.5,26.9-10.8c6.4-2.4,12.9-4.6,18.9-7.8c16.1-8.4,25.8-22.5,32.8-38.9
			c5.7-13.3,8.1-27.4,2.3-41.1c-3.7-8.7-9.8-16.2-16.5-22.9c-7-6.9-14.9-13.4-24.4-16.3c-14-4.3-28.4,1.8-42.4-2.1
			c-19.5-5.4-32-25.2-36.7-43.7c-4.8-19.1-4.5-39.1-5.9-58.6c-1.3-18.2-5-34.8-12.3-51.6c-5.2-11.8-12-23-24.9-27.1
			C65.3,18.7,57.3,18.6,49.7,19c-1.9,0.1-1.9,3.1,0,3c14.9-0.8,29.2,1.3,38.2,14.4c9,13.1,14.6,30.1,17,45.7
			c2.9,18.2,2.6,36.7,4.4,55c1.6,16.4,4.8,33.6,14.8,47.2c9.5,12.8,23,22.3,39.3,22.2c6.4,0,12.8-1.1,19.2-1
			c8.3,0.1,16,2.7,22.9,7.4c15.3,10.4,30.9,28.3,30.8,47.8c0,7.3-2.1,14.5-4.9,21.2c-3.6,8.8-7.9,17.6-14.1,24.8
			c-10.1,11.8-23.5,16.9-37.5,22.2c-9,3.4-17.4,7.8-26.6,10.6c-10.5,3.3-21.3,5.4-32.2,6.2c-13.1,1-25.5-0.6-38.4-2.2
			c-9.4-1.1-18.8-2.4-28-4.5c-23.8-5.5-51.6-17.6-51.4-46c0.1-14.8,2.8-28.8,6.7-43c3.6-13.1,5.7-26,5.3-39.6
			c-0.4-14-2.8-27.9-4.8-41.8c-1.9-13.1-3.4-26.2-4.3-39.4C4.6,109,3.8,88.7,4.2,68.4c0.3-15,6.3-30,19.2-38.5
			c7.9-5.2,17.1-7.3,26.3-8C51.6,21.8,51.6,18.8,49.7,19z"/>
	</g>
</g>
<g class="st1">
	<g>
		<path d="M62.7,59.9c9.7,16.3,13.4,35,16.3,53.5c2.5,16.6,4.6,33.3,6.7,50c0.7,5.8,1.4,11.6,2.5,17.3c0.8,4.4,2.8,8.1,5,12.1
			c6.4,11.7,15.4,23,29.5,24.2c1.9,0.2,1.9-2.8,0-3c-14.9-1.4-25.9-17.1-30.7-30.2c-1.2-3.3-1.5-7.1-2-10.6
			c-1-7.2-1.9-14.5-2.8-21.7c-1.9-15.3-3.9-30.6-6.4-45.7C78,89.2,73.9,72.9,65.3,58.3C64.3,56.7,61.7,58.2,62.7,59.9L62.7,59.9z"/>
	</g>
</g>
<circle class="st2" cx="142.7" cy="248.5" r="13"/>
<circle class="st3" cx="142.7" cy="248.5" r="13"/>
<circle class="st3" cx="90.7" cy="251.5" r="13"/>
<circle class="st4" cx="89.2" cy="251" r="7.5"/>
<circle class="st4" cx="144.2" cy="249" r="7.5"/>
<g>
	<path class="st5" d="M74.7,289.5c30.4,0,65,0,96-6c-6,16-2.8,26-50,29C88.7,314.5,74.7,289.5,74.7,289.5z"/>
	<g>
		<path d="M74.7,291c32.2,0,64.7,0,96.4-6.1c-0.6-0.6-1.2-1.2-1.8-1.8c-2.2,5.8-3.2,12.7-7.6,17.3c-7.1,7.5-20.2,8.6-29.7,9.6
			c-15.2,1.6-29.7,1.5-42.7-7.6c-5.1-3.5-10.1-8.3-13.2-13.8c-1-1.7-3.5-0.2-2.6,1.5c7.2,12.7,21.8,21.3,35.9,23.3
			c12.3,1.8,26.3-0.1,38.4-3.1c6.4-1.6,13.2-4.1,17.3-9.5c3.8-4.9,5-11.3,7.1-17.1c0.4-1.2-0.8-2-1.8-1.8c-31.5,6-63.7,5.9-95.6,5.9
			C72.8,288,72.8,291,74.7,291z"/>
	</g>
</g>
<g>
	<g>
		<path d="M71.2,240.2c1.1-5.7,5.6-9.7,11.4-9.9c1.9-0.1,1.9-3.1,0-3c-7.1,0.2-13,5-14.3,12.1C67.9,241.3,70.8,242.1,71.2,240.2
			L71.2,240.2z"/>
	</g>
</g>
<g>
	<g>
		<path d="M145.6,227.9c4.9-0.5,10.2,0.1,13,4.7c1,1.6,3.6,0.1,2.6-1.5c-3.3-5.5-9.6-6.8-15.6-6.2
			C143.7,225.1,143.6,228.1,145.6,227.9L145.6,227.9z"/>
	</g>
</g>
<g class="st1">
	<g>
		<path d="M36,56c-1,34.1,2.8,67.6,8.8,101.1c6.1,34,12.8,68.8,5.1,103.1c-3.7,16.6-8.7,33.4-4.2,50.3c0.5,1.9,3.4,1.1,2.9-0.8
			c-4.4-16.4,0.7-32.7,4.2-48.7c3.5-15.7,4.2-31.3,3.2-47.3c-2.3-33.7-11.2-66.5-14.8-100C39.1,94.5,38.4,75.2,39,56
			C39,54,36,54,36,56L36,56z"/>
	</g>
</g>
<g>
	<path class="st6" d="M30.9,32.1c10.9-2.9,21.9-5.1,33.1-6.3c-2.7-7.5-5.5-14.9-8.2-22.4c-0.2-0.6-0.5-1.3-1.1-1.6
		c-0.5-0.2-1-0.2-1.5-0.2c-8.1,0.8-16.1,2.4-23.8,4.8C29.3,6.5,30.9,24.1,30.9,32.1z"/>
	<g>
		<path d="M31.3,33.6c10.8-2.9,21.7-5,32.7-6.3c0.9-0.1,1.8-0.9,1.4-1.9c-1.9-5.3-3.9-10.6-5.8-15.8c-0.9-2.4-1.6-7.5-4.1-9
			c-2.4-1.4-7.6,0.3-10.1,0.7c-5.6,0.9-11,2.2-16.4,3.8c-0.6,0.2-1.2,0.8-1.1,1.4c0.7,8.5,1.5,17.1,1.5,25.7c0,1.9,3,1.9,3,0
			c-0.1-8.6-0.8-17.1-1.5-25.7c-0.4,0.5-0.7,1-1.1,1.4c3.6-1.1,7.2-2,10.9-2.8c1.8-0.4,3.7-0.7,5.5-1c1.4-0.2,5.7-1.5,7-0.9
			c2.8,1.3,4.3,9.1,5.3,11.8c1.4,3.7,2.7,7.5,4.1,11.2c0.5-0.6,1-1.3,1.4-1.9c-11.3,1.4-22.5,3.5-33.5,6.4
			C28.6,31.2,29.4,34.1,31.3,33.6z"/>
	</g>
</g>
<g class="st7">
	<g>
		<path d="M37.7,11.4c-0.4,4,0.7,7.9,0.4,11.8c-0.2,1.9,2.8,1.9,3,0c0.3-4-0.8-7.9-0.4-11.8C40.9,9.5,37.9,9.5,37.7,11.4L37.7,11.4z
			"/>
	</g>
</g>
<g class="st7">
	<g>
		<path d="M47.1,9c-0.6,4.4,1,8.7,2.2,12.9c0.5,1.9,3.4,1.1,2.9-0.8c-1-3.5-2.7-7.5-2.2-11.3C50.3,7.9,47.4,7.1,47.1,9L47.1,9z"/>
	</g>
</g>
</svg>
